<!-- Generated by IcoMoon.io -->
<svg version="1.1" xmlns="http://www.w3.org/2000/svg" width="32" height="32" viewBox="0 0 32 32">
<title>apple</title>
<path d="M23.328 7.392c-1.984-0.32-3.936 0.096-5.6 1.184 0.48-1.088 1.28-2.080 2.336-2.944 1.248-1.056 2.432-1.536 2.432-1.536 0.48-0.192 0.736-0.736 0.544-1.216-0.192-0.512-0.736-0.736-1.216-0.544-0.16 0.064-2.528 0.992-4.384 3.168-0.064-0.32-0.192-0.672-0.32-1.024-1.088-2.88-4.16-4.32-4.288-4.384-0.224-0.128-0.48-0.128-0.736-0.032s-0.448 0.288-0.544 0.512c-0.032 0.128-1.344 3.232-0.256 6.144 0.128 0.256 0.224 0.512 0.352 0.736-0.96-0.192-1.952-0.224-2.976-0.064-4.416 0.704-7.424 4.96-6.752 9.472 0.512 3.232 1.216 6.016 2.144 8.224 1.056 2.56 2.368 4.416 3.936 5.568 1.248 0.896 2.624 1.344 4.128 1.344 0.416 0 0.832-0.032 1.28-0.096 0.992-0.16 1.856-0.544 2.592-1.088 0.736 0.544 1.6 0.928 2.624 1.088 1.984 0.32 3.808-0.096 5.376-1.248s2.88-3.008 3.936-5.568c0.928-2.208 1.664-4.992 2.144-8.224 0.704-4.512-2.336-8.768-6.752-9.472zM12.992 2.4c0.8 0.544 1.856 1.472 2.368 2.752 0.48 1.312 0.32 2.72 0.096 3.648-0.8-0.544-1.856-1.472-2.368-2.784-0.48-1.28-0.32-2.688-0.096-3.616zM28.192 16.576c-0.96 6.368-2.816 10.688-5.312 12.512-1.184 0.864-2.464 1.152-3.968 0.928-0.928-0.16-1.632-0.512-2.208-1.152-0.192-0.192-0.448-0.288-0.704-0.288s-0.512 0.096-0.704 0.288c-0.576 0.64-1.28 0.992-2.208 1.152-1.504 0.224-2.784-0.064-3.968-0.928-2.496-1.824-4.352-6.144-5.312-12.512-0.544-3.488 1.792-6.752 5.184-7.328 0.32-0.032 0.64-0.064 0.96-0.064 1.312 0 2.592 0.448 3.68 1.248 1.408 1.088 3.36 1.088 4.736 0 1.344-1.024 3.008-1.44 4.64-1.184v0c3.392 0.576 5.728 3.84 5.184 7.328z"></path>
</svg>
