<!-- Generated by IcoMoon.io -->
<svg version="1.1" xmlns="http://www.w3.org/2000/svg" width="32" height="32" viewBox="0 0 32 32">
<title>bar</title>
<path d="M31.136 7.776l-6.912-6.912c-0.544-0.544-1.28-0.864-2.080-0.864-0.768 0-1.536 0.32-2.080 0.864l-4.992 4.992-4.864 1.6c-0.736 0.224-1.248 0.832-1.344 1.6s0.224 1.504 0.864 1.92c0.032 0.032 0.096 0.064 0.128 0.096l-8.992 8.992c-1.152 1.152-1.152 3.008 0 4.16l6.912 6.912c0.544 0.544 1.28 0.864 2.080 0.864s1.536-0.32 2.080-0.864l8.224-8.224c0.736 0.416 1.408 0.8 1.984 1.056 0.288 0.128 0.576 0.224 0.864 0.224s0.608-0.096 0.864-0.224c0.576-0.256 0.96-0.768 1.088-1.376l1.216-5.696 4.96-4.96c1.152-1.152 1.152-3.008 0-4.16zM10.56 29.76c-0.192 0.192-0.448 0.32-0.704 0.32-0.288 0-0.544-0.128-0.704-0.32l-6.912-6.912c-0.416-0.384-0.416-1.024 0-1.408l9.184-9.184c1.376 1.12 2.848 2.656 3.328 4.352 0.608 2.176 2.176 3.872 3.808 5.184l-8 7.968zM23.072 22.208c0 0 0 0.032-0.032 0.032s-0.032 0-0.064 0c-1.6-0.768-5.44-2.944-6.368-6.176-0.832-2.88-3.616-5.216-5.824-6.688 0 0-0.032-0.032 0-0.064 0-0.032 0-0.032 0.032-0.032l4.512-1.472 8.928 8.896-1.184 5.504zM19.424 9.152l2.72-2.72 3.424 3.424-2.72 2.72-3.424-3.424zM29.76 10.56l-4.448 4.48-1.088-1.088 3.392-3.424c0.192-0.16 0.288-0.416 0.288-0.672s-0.096-0.512-0.288-0.704l-4.768-4.768c-0.192-0.192-0.448-0.288-0.704-0.288s-0.512 0.096-0.672 0.288l-3.424 3.392-1.088-1.088 4.48-4.448c0.192-0.192 0.448-0.32 0.704-0.32 0.288 0 0.544 0.128 0.736 0.32l6.88 6.88c0.416 0.416 0.416 1.056 0 1.44z"></path>
</svg>
