<?xml version="1.0" encoding="iso-8859-1"?>
<!-- Generator: Adobe Illustrator 19.0.0, SVG Export Plug-In . SVG Version: 6.00 Build 0)  -->
<svg version="1.1" id="Capa_1" xmlns="http://www.w3.org/2000/svg" xmlns:xlink="http://www.w3.org/1999/xlink" x="0px" y="0px"
	 viewBox="0 0 512 512" style="enable-background:new 0 0 512 512;" xml:space="preserve">
<g>
	<g>
		<path d="M386.76,181.717H36.831c-10.172,0-18.417,8.245-18.417,18.417v118.484C18.414,425.255,105.166,512,211.796,512
			s193.381-86.745,193.381-193.381V200.134C405.177,189.962,396.932,181.717,386.76,181.717z M368.342,318.619
			c0,86.322-70.225,156.547-156.547,156.547S55.249,404.94,55.249,318.619V218.552h313.094V318.619z"/>
	</g>
</g>
<g>
	<g>
		<path d="M436.492,257.228H386.76v36.835h49.733c18.638,0,34.379,15.741,34.379,34.379c0,18.638-15.747,34.379-34.379,34.379
			h-62.011v36.835h62.011c39.266,0,71.213-31.942,71.213-71.213C507.706,289.169,475.758,257.228,436.492,257.228z"/>
	</g>
</g>
<g>
	<g>
		<path d="M211.796,0c-10.172,0-18.417,8.245-18.417,18.417v87.789c0,10.172,8.245,18.417,18.417,18.417
			c10.172,0,18.417-8.245,18.417-18.417V18.417C230.213,8.245,221.968,0,211.796,0z"/>
	</g>
</g>
<g>
	<g>
		<path d="M299.584,29.468c-10.172,0-18.417,8.245-18.417,18.417v87.789c0,10.172,8.245,18.417,18.417,18.417
			s18.417-8.245,18.417-18.417V47.885C318.002,37.712,309.757,29.468,299.584,29.468z"/>
	</g>
</g>
<g>
	<g>
		<path d="M124.007,29.468c-10.172,0-18.417,8.245-18.417,18.417v87.789c0,10.172,8.245,18.417,18.417,18.417
			c10.172,0,18.417-8.245,18.417-18.417V47.885C142.424,37.712,134.179,29.468,124.007,29.468z"/>
	</g>
</g>
<g>
	<g>
		<path d="M395.968,475.165H22.712c-10.172,0-18.417,8.245-18.417,18.417c0,10.172,8.245,18.417,18.417,18.417h373.257
			c10.172,0,18.417-8.245,18.417-18.417C414.385,483.41,406.141,475.165,395.968,475.165z"/>
	</g>
</g>
<g>
</g>
<g>
</g>
<g>
</g>
<g>
</g>
<g>
</g>
<g>
</g>
<g>
</g>
<g>
</g>
<g>
</g>
<g>
</g>
<g>
</g>
<g>
</g>
<g>
</g>
<g>
</g>
<g>
</g>
</svg>
