<!-- Generated by IcoMoon.io -->
<svg version="1.1" xmlns="http://www.w3.org/2000/svg" width="32" height="32" viewBox="0 0 32 32">
<title>meat-o</title>
<path d="M14.4 31.936c0 0 0 0 0 0-3.104 0-6.016-1.216-8.224-3.424-1.152-1.152-2.144-2.528-2.784-4.032-0.736-1.632-1.152-3.36-1.152-5.152-0.064-4.064 1.824-8.16 5.472-11.776 1.44-1.472 4.96-4.384 8.928-6.144 4.928-2.144 8.96-1.824 11.712 0.896 0.672 0.672 1.152 1.76 1.312 2.912 0.128 0.992 0.096 2.496-0.896 4.064-2.304 3.712-3.168 6.688-2.816 9.6 0.448 3.584-0.768 7.104-3.328 9.664-2.208 2.176-5.12 3.392-8.224 3.392zM22.56 1.856c-1.504 0-3.232 0.416-5.152 1.28-3.712 1.632-7.008 4.384-8.384 5.728-6.848 6.88-5.696 14.144-1.536 18.336 3.808 3.808 9.984 3.808 13.824 0 2.112-2.112 3.136-5.088 2.784-8.096-0.416-3.36 0.544-6.688 3.072-10.784 1.28-2.112 0.448-4.096-0.16-4.672-1.184-1.184-2.656-1.792-4.448-1.792zM14.4 28.192c-2.112 0-4.096-0.832-5.568-2.336-1.792-1.76-2.816-4.16-2.848-6.56-0.032-1.408 0.288-2.848 0.896-4.256 0.736-1.632 1.888-3.264 3.456-4.832 2.688-2.688 8.256-6.464 12.224-6.464 0.864 0 1.568 0.16 2.208 0.512 0.512 0.288 0.896 0.768 1.056 1.344s0.064 1.184-0.224 1.696l-0.032 0.032c-2.72 4.416-3.776 8.224-3.328 12 0.288 2.432-0.544 4.832-2.272 6.56-1.504 1.472-3.456 2.304-5.568 2.304zM22.56 5.632c-3.232 0-8.416 3.424-10.88 5.888-1.408 1.408-2.432 2.848-3.072 4.288-0.512 1.152-0.768 2.336-0.768 3.456 0.032 1.92 0.864 3.84 2.304 5.28 1.152 1.152 2.656 1.76 4.256 1.76s3.104-0.608 4.256-1.76c1.312-1.312 1.952-3.136 1.728-4.992-0.512-4.192 0.64-8.416 3.584-13.216v0c0.064-0.096 0.064-0.192 0.032-0.256 0-0.032-0.032-0.128-0.128-0.192-0.352-0.192-0.768-0.256-1.312-0.256zM14.464 23.456c-1.664 0-3.008-1.344-3.008-3.008s1.344-3.008 3.008-3.008 3.008 1.344 3.008 3.008-1.344 3.008-3.008 3.008zM14.464 19.328c-0.608 0-1.12 0.48-1.12 1.12s0.512 1.12 1.12 1.12 1.152-0.512 1.152-1.12-0.512-1.12-1.152-1.12z"></path>
</svg>
