<!-- Generated by IcoMoon.io -->
<svg version="1.1" xmlns="http://www.w3.org/2000/svg" width="32" height="32" viewBox="0 0 32 32">
<title>toast-bread</title>
<path d="M26.368 3.68c-2.784-2.368-6.464-3.68-10.368-3.68s-7.584 1.312-10.368 3.68c-2.816 2.432-4.352 5.664-4.352 9.088 0 2.848 1.056 4.704 2.816 6.784 1.152 1.376 1.728 2.368 1.728 4.128v4.992c0 1.824 1.504 3.328 3.328 3.328h13.696c1.824 0 3.328-1.504 3.328-3.328v-4.992c0-1.76 0.576-2.752 1.728-4.128 1.76-2.080 2.816-3.936 2.816-6.784 0-3.424-1.536-6.656-4.352-9.088zM26.464 18.304c-1.408 1.664-2.208 3.072-2.208 5.376v4.992c0 0.8-0.64 1.44-1.408 1.44h-13.696c-0.768 0-1.408-0.64-1.408-1.44v-4.992c0-2.304-0.8-3.712-2.208-5.376-1.536-1.824-2.368-3.232-2.368-5.536 0-5.984 5.76-10.88 12.832-10.88s12.832 4.896 12.832 10.88c0 2.304-0.832 3.712-2.368 5.536zM11.104 6.944c-1.952 0-3.552 1.568-3.552 3.52 0 1.984 1.6 3.552 3.552 3.552s3.552-1.568 3.552-3.552-1.6-3.52-3.552-3.52zM11.104 12.128c-0.896 0-1.632-0.736-1.632-1.664 0-0.896 0.736-1.632 1.632-1.632s1.632 0.736 1.632 1.632c0 0.928-0.736 1.664-1.632 1.664zM21.472 6.784c-0.512 0-0.992 0.416-0.96 0.96 0.032 0.512 0.416 0.928 0.96 0.928 0.48 0 0.96-0.416 0.928-0.928 0-0.544-0.416-0.96-0.928-0.96zM12.864 16.736c-0.512 0-0.992 0.448-0.96 0.96s0.416 0.96 0.96 0.96c0.512 0 0.96-0.448 0.96-0.96-0.032-0.512-0.416-0.96-0.96-0.96zM16 21.664c-1.792 0-3.264 1.472-3.264 3.264s1.472 3.264 3.264 3.264 3.264-1.472 3.264-3.264c0-1.792-1.472-3.264-3.264-3.264zM16 26.304c-0.768 0-1.376-0.608-1.376-1.376s0.608-1.376 1.376-1.376c0.768 0 1.376 0.608 1.376 1.376s-0.608 1.376-1.376 1.376zM21.056 11.68c-1.76 0-3.2 1.44-3.2 3.2s1.44 3.2 3.2 3.2 3.2-1.408 3.2-3.2-1.44-3.2-3.2-3.2zM21.056 16.192c-0.704 0-1.312-0.576-1.312-1.312 0-0.704 0.608-1.28 1.312-1.28s1.28 0.576 1.28 1.28c0 0.736-0.576 1.312-1.28 1.312z"></path>
</svg>
